<mxfile host="Electron" modified="2024-06-20T12:14:04.736Z" agent="Mozilla/5.0 (Windows NT 10.0; Win64; x64) AppleWebKit/537.36 (KHTML, like Gecko) draw.io/24.5.3 Chrome/124.0.6367.207 Electron/30.0.6 Safari/537.36" etag="Kylkk8L6l3CxVkiD7-gZ" version="24.5.3" type="device">
  <diagram name="第 1 页" id="UaH9pz-wzOEh9ISpvaZk">
    <mxGraphModel dx="1082" dy="820" grid="1" gridSize="10" guides="1" tooltips="1" connect="1" arrows="1" fold="1" page="1" pageScale="1" pageWidth="827" pageHeight="1169" math="0" shadow="0">
      <root>
        <mxCell id="0" />
        <mxCell id="1" parent="0" />
        <mxCell id="vG8PrpAIqFkbVzBRy9qT-24" value="vehicle" style="rounded=1;whiteSpace=wrap;html=1;fillColor=#FFFFFF;strokeColor=#5D1006;fontColor=#000000;dashed=1;" vertex="1" parent="1">
          <mxGeometry x="310" y="510" width="220" height="220" as="geometry" />
        </mxCell>
        <mxCell id="vG8PrpAIqFkbVzBRy9qT-23" value="vehicle" style="rounded=1;whiteSpace=wrap;html=1;fillColor=#FFFFFF;strokeColor=#5D1006;fontColor=#000000;dashed=1;" vertex="1" parent="1">
          <mxGeometry x="70" y="510" width="220" height="220" as="geometry" />
        </mxCell>
        <mxCell id="vG8PrpAIqFkbVzBRy9qT-22" value="vehicle" style="rounded=1;whiteSpace=wrap;html=1;fillColor=#FFFFFF;strokeColor=#5D1006;fontColor=#000000;dashed=1;" vertex="1" parent="1">
          <mxGeometry x="310" y="260" width="220" height="220" as="geometry" />
        </mxCell>
        <mxCell id="4CLjIFczKc-vHJKb__w7-10" value="&lt;font color=&quot;#ffffff&quot;&gt;order&lt;/font&gt;" style="rounded=1;whiteSpace=wrap;html=1;fillColor=#5D1006;strokeColor=#C73500;fontColor=#000000;" parent="1" vertex="1">
          <mxGeometry x="200" y="550" width="60" height="50" as="geometry" />
        </mxCell>
        <mxCell id="vG8PrpAIqFkbVzBRy9qT-1" value="&lt;font color=&quot;#ffffff&quot;&gt;order&lt;/font&gt;" style="rounded=1;whiteSpace=wrap;html=1;fillColor=#5D1006;strokeColor=#C73500;fontColor=#000000;" vertex="1" parent="1">
          <mxGeometry x="100" y="550" width="60" height="50" as="geometry" />
        </mxCell>
        <mxCell id="vG8PrpAIqFkbVzBRy9qT-2" value="&lt;font color=&quot;#ffffff&quot;&gt;order&lt;/font&gt;" style="rounded=1;whiteSpace=wrap;html=1;fillColor=#5D1006;strokeColor=#C73500;fontColor=#000000;" vertex="1" parent="1">
          <mxGeometry x="100" y="640" width="60" height="50" as="geometry" />
        </mxCell>
        <mxCell id="vG8PrpAIqFkbVzBRy9qT-3" value="&lt;font color=&quot;#ffffff&quot;&gt;order&lt;/font&gt;" style="rounded=1;whiteSpace=wrap;html=1;fillColor=#5D1006;strokeColor=#C73500;fontColor=#000000;" vertex="1" parent="1">
          <mxGeometry x="200" y="640" width="60" height="50" as="geometry" />
        </mxCell>
        <mxCell id="vG8PrpAIqFkbVzBRy9qT-6" value="&lt;font color=&quot;#ffffff&quot;&gt;order&lt;/font&gt;" style="rounded=1;whiteSpace=wrap;html=1;fillColor=#5D1006;strokeColor=#C73500;fontColor=#000000;" vertex="1" parent="1">
          <mxGeometry x="445" y="550" width="60" height="50" as="geometry" />
        </mxCell>
        <mxCell id="vG8PrpAIqFkbVzBRy9qT-7" value="&lt;font color=&quot;#ffffff&quot;&gt;order&lt;/font&gt;" style="rounded=1;whiteSpace=wrap;html=1;fillColor=#5D1006;strokeColor=#C73500;fontColor=#000000;" vertex="1" parent="1">
          <mxGeometry x="345" y="550" width="60" height="50" as="geometry" />
        </mxCell>
        <mxCell id="vG8PrpAIqFkbVzBRy9qT-8" value="&lt;font color=&quot;#ffffff&quot;&gt;order&lt;/font&gt;" style="rounded=1;whiteSpace=wrap;html=1;fillColor=#5D1006;strokeColor=#C73500;fontColor=#000000;" vertex="1" parent="1">
          <mxGeometry x="345" y="640" width="60" height="50" as="geometry" />
        </mxCell>
        <mxCell id="vG8PrpAIqFkbVzBRy9qT-10" value="&lt;font color=&quot;#ffffff&quot;&gt;drop_point&lt;/font&gt;" style="ellipse;whiteSpace=wrap;html=1;aspect=fixed;fillColor=#5D1006;" vertex="1" parent="1">
          <mxGeometry x="620" y="580" width="80" height="80" as="geometry" />
        </mxCell>
        <mxCell id="vG8PrpAIqFkbVzBRy9qT-11" value="vehicle" style="rounded=1;whiteSpace=wrap;html=1;fillColor=#FFFFFF;strokeColor=#5D1006;fontColor=#000000;dashed=1;" vertex="1" parent="1">
          <mxGeometry x="70" y="260" width="220" height="220" as="geometry" />
        </mxCell>
        <mxCell id="vG8PrpAIqFkbVzBRy9qT-12" value="&lt;font color=&quot;#ffffff&quot;&gt;order&lt;/font&gt;" style="rounded=1;whiteSpace=wrap;html=1;fillColor=#BC0112;strokeColor=#5D1006;fontColor=#000000;" vertex="1" parent="1">
          <mxGeometry x="200" y="300" width="60" height="50" as="geometry" />
        </mxCell>
        <mxCell id="vG8PrpAIqFkbVzBRy9qT-13" value="&lt;font color=&quot;#ffffff&quot;&gt;order&lt;/font&gt;" style="rounded=1;whiteSpace=wrap;html=1;fillColor=#BC0112;strokeColor=#5D1006;fontColor=#000000;" vertex="1" parent="1">
          <mxGeometry x="100" y="300" width="60" height="50" as="geometry" />
        </mxCell>
        <mxCell id="vG8PrpAIqFkbVzBRy9qT-14" value="&lt;font color=&quot;#ffffff&quot;&gt;order&lt;/font&gt;" style="rounded=1;whiteSpace=wrap;html=1;fillColor=#BC0112;strokeColor=#5D1006;fontColor=#000000;" vertex="1" parent="1">
          <mxGeometry x="100" y="390" width="60" height="50" as="geometry" />
        </mxCell>
        <mxCell id="vG8PrpAIqFkbVzBRy9qT-15" value="&lt;font color=&quot;#ffffff&quot;&gt;order&lt;/font&gt;" style="rounded=1;whiteSpace=wrap;html=1;fillColor=#BC0112;strokeColor=#5D1006;fontColor=#000000;" vertex="1" parent="1">
          <mxGeometry x="200" y="390" width="60" height="50" as="geometry" />
        </mxCell>
        <mxCell id="vG8PrpAIqFkbVzBRy9qT-17" value="&lt;font color=&quot;#ffffff&quot;&gt;order&lt;/font&gt;" style="rounded=1;whiteSpace=wrap;html=1;fillColor=#BC0112;strokeColor=#5D1006;fontColor=#000000;" vertex="1" parent="1">
          <mxGeometry x="445" y="300" width="60" height="50" as="geometry" />
        </mxCell>
        <mxCell id="vG8PrpAIqFkbVzBRy9qT-18" value="&lt;font color=&quot;#ffffff&quot;&gt;order&lt;/font&gt;" style="rounded=1;whiteSpace=wrap;html=1;fillColor=#BC0112;strokeColor=#5D1006;fontColor=#000000;" vertex="1" parent="1">
          <mxGeometry x="345" y="300" width="60" height="50" as="geometry" />
        </mxCell>
        <mxCell id="vG8PrpAIqFkbVzBRy9qT-20" value="&lt;font color=&quot;#ffffff&quot;&gt;drop_point&lt;/font&gt;" style="ellipse;whiteSpace=wrap;html=1;aspect=fixed;fillColor=#BC0112;strokeColor=#5D1006;" vertex="1" parent="1">
          <mxGeometry x="620" y="330" width="80" height="80" as="geometry" />
        </mxCell>
        <mxCell id="vG8PrpAIqFkbVzBRy9qT-25" value="" style="shape=flexArrow;endArrow=classic;html=1;rounded=0;dashed=1;" edge="1" parent="1">
          <mxGeometry width="50" height="50" relative="1" as="geometry">
            <mxPoint x="540" y="370" as="sourcePoint" />
            <mxPoint x="610" y="370" as="targetPoint" />
          </mxGeometry>
        </mxCell>
        <mxCell id="vG8PrpAIqFkbVzBRy9qT-26" value="" style="shape=flexArrow;endArrow=classic;html=1;rounded=0;dashed=1;" edge="1" parent="1">
          <mxGeometry width="50" height="50" relative="1" as="geometry">
            <mxPoint x="540" y="619.5" as="sourcePoint" />
            <mxPoint x="610" y="619.5" as="targetPoint" />
          </mxGeometry>
        </mxCell>
      </root>
    </mxGraphModel>
  </diagram>
</mxfile>
